<svg height='300px' width='300px'  fill="#000000" xmlns="http://www.w3.org/2000/svg" xmlns:xlink="http://www.w3.org/1999/xlink" version="1.1" x="0px" y="0px" viewBox="0 0 100 100" enable-background="new 0 0 100 100" xml:space="preserve"><g><path d="M15.453,16.451c0.072-0.283,0.24-0.628,0.579-0.629c0.336-0.02,0.554,0.312,0.617,0.609   c0.457,1.699,0.888,3.409,1.356,5.106c0.117,0.516,0.64,0.834,1.152,0.79c3.272,0.005,6.543,0,9.813,0.002   c0.514,0.05,1.063-0.242,1.179-0.77c0.516-1.78,0.956-3.583,1.48-5.362c0.075-0.5,0.924-0.502,0.995-0.002   c0.491,1.67,0.912,3.363,1.377,5.043c0.091,0.326,0.225,0.7,0.569,0.836c0.908,0.41,1.894,0.63,2.784,1.077   c1.099,0.626,1.287,2.301,0.359,3.159c-0.729,0.782-1.87,0.625-2.831,0.613c-1.064,5.412-1.971,10.859-3.002,16.28   c-0.125,0.518-0.636,0.924-1.179,0.874c-4.424-0.002-8.851,0.003-13.273-0.003c-0.579,0.036-1.086-0.455-1.141-1.019   c-0.97-5.365-1.967-10.727-2.917-16.097c-0.922-0.092-1.989,0.175-2.75-0.505c-1.081-0.835-0.923-2.696,0.265-3.359   c0.854-0.426,1.8-0.633,2.676-1.023c0.323-0.131,0.5-0.458,0.582-0.78C14.584,19.679,15.01,18.062,15.453,16.451z"></path><path d="M37.471,30.399c12.439-0.024,24.878-0.001,37.318-0.012c1.253-0.035,2.527,0.345,3.52,1.123   c1.297,0.988,2.082,2.6,2.075,4.229c0.011,4.55-0.005,9.102,0.009,13.653c-0.002,1.332,0.58,2.604,1.457,3.587   c1.555,1.943,3.121,3.877,4.662,5.83c0.895,1.17,1.002,2.683,1.081,4.096c0.522,6.688,1.056,13.373,1.575,20.059   c0.159,1.344-0.975,2.643-2.324,2.672c-1.211,0.123-2.434-0.777-2.605-1.996c-0.62-3.597-1.229-7.195-1.848-10.793   c-0.154-0.846-0.229-1.72-0.604-2.5c-0.738-1.588-2.21-2.791-3.875-3.301c-1.755-0.668-3.644-0.826-5.425-1.404   c-0.741-0.224-1.508-0.492-2.051-1.07c-0.781-0.762-0.844-1.92-1.358-2.836c-0.493-0.914-0.913-1.969-1.817-2.559   c-0.914-0.58-2.113-0.699-3.115-0.291c-5.117,2.045-10.234,4.086-15.352,6.133c-0.825,0.297-1.378,1.149-1.354,2.022   c-0.008,5.419,0.005,10.841-0.007,16.261c-0.01,1.311-1.261,2.41-2.555,2.342c-1.371,0.101-2.646-1.117-2.589-2.492   c-0.007-3.678-0.002-7.355-0.004-11.031c-0.014-1.111,0.112-2.285-0.39-3.316c-0.644-1.482-2.218-2.479-3.83-2.461   c-2.682-0.019-5.366,0.01-8.046-0.014c-2.679-0.096-5.131-2.061-5.871-4.624c-1.366-4.802-2.723-9.604-4.082-14.406   c3.608-0.027,7.218-0.002,10.827-0.016c1.933-0.004,3.751-1.455,4.131-3.36C35.856,39.419,36.651,34.906,37.471,30.399z"></path><path d="M67.62,67.421c0.259-0.627,0.493-1.267,0.803-1.87c1.238,1.311,2.446,2.649,3.685,3.961   c-1.979,4.873-3.974,9.738-5.965,14.604c-0.5,1.32-2.187,1.906-3.429,1.283c-1.144-0.521-1.696-1.981-1.205-3.135   C63.544,77.316,65.582,72.369,67.62,67.421z"></path><path d="M31.064,69.502c1.882,0.002,3.764-0.01,5.646,0.007c-1.878,4.89-3.769,9.775-5.666,14.656   c-0.636,1.644-3.039,1.968-4.242,0.78c-0.74-0.688-0.928-1.832-0.549-2.752C27.863,77.967,29.443,73.727,31.064,69.502z"></path></g></svg>